<svg xmlns="http://www.w3.org/2000/svg" data-name="Layer 1" viewBox="0 0 123.9 122.9"><path fill-rule="evenodd" d="M103.3 37.3H82.6a8.6 8.6 0 0 1-8.9-8.8V7.6H21.2a.6.6 0 0 0-.5.2.5.5 0 0 0-.1.4v106.5a.7.7 0 0 0 .1.4.5.5 0 0 0 .5.2h81.5c.2 0 .2-.1.3-.2l.3-.4V37.3Zm7.5 79.8a5.8 5.8 0 0 1-5.8 5.8H18.8A5.8 5.8 0 0 1 13 117V5.8A5.8 5.8 0 0 1 18.8 0h58.8a4.3 4.3 0 0 1 2.5.8l30 30.4a2.8 2.8 0 0 1 .8 2 3.5 3.5 0 0 1 0 .6v83.3Zm-30-89.2-.5-18.2 21.2 21.6-18.3-.9a2.4 2.4 0 0 1-2.5-2.5Z"/><path fill="red" fill-rule="evenodd" d="M6.8 46.7h110.4a6.8 6.8 0 0 1 6.7 6.7V99a6.8 6.8 0 0 1-6.7 6.8H6.8A6.8 6.8 0 0 1 0 98.9V53.4a6.8 6.8 0 0 1 6.8-6.7Z"/><path fill="#fff" d="M35.5 63.7H44l-3.9 25H29.5l-1.8-9.2h-.5l-1.8 9.2H14.9l-3.9-25h8.4l1.8 14h.3l2.9-14h6.1l2.8 14h.3l1.9-14Zm26.7 15.5h-8v3H64v6.4H46.2v-25h17.6l-1 6.5h-8.6v3.3h8v5.8Zm5.5 9.5v-25h13q3.6 0 5.1 1.4a5.2 5.2 0 0 1 1.6 4 7.4 7.4 0 0 1-1 4.2 4.5 4.5 0 0 1-2.6 2v.2q4.8.8 4.8 6.6a7 7 0 0 1-1.6 4.8 6.2 6.2 0 0 1-5 1.8Zm11.1-10h-3v4h3c1.1 0 1.7-.6 1.7-2s-.6-2-1.7-2Zm-.6-9.6h-2.5V73h2.5q1.5 0 1.5-1.9c0-1.3-.5-1.9-1.5-1.9ZM105 82.6h-5.2v6h-8v-25h12.6q8.6 0 8.6 9.3 0 5-2.2 7.5a6.6 6.6 0 0 1-2.3 1.6 8.7 8.7 0 0 1-3.5.6Zm-5.2-12.5v6.2h1.9a5.4 5.4 0 0 0 2-.3q.7-.3.7-1.4v-2.8c0-.7-.2-1.2-.6-1.4a5.4 5.4 0 0 0-2.1-.3Z"/></svg>